<?xml version="1.0" encoding="UTF-8"?>
<svg width="1400px" height="1400px" viewBox="0 0 1400 1400" version="1.1" xmlns="http://www.w3.org/2000/svg" xmlns:xlink="http://www.w3.org/1999/xlink">
    <title>Einundzwanzig Der Weg</title>
    <defs>
        <linearGradient x1="1.87847633e-11%" y1="1.05016105e-11%" x2="1.87847633e-11%" y2="100%" id="linearGradient-1">
            <stop stop-color="#F9AA4B" offset="0%"></stop>
            <stop stop-color="#F7931A" offset="100%"></stop>
        </linearGradient>
        <path d="M318.13768,353.399037 L318.13768,284.365531 L194.068373,284.365531 L194.068373,236.981585 L294.720625,236.981585 L294.720625,167.948079 L194.068373,167.948079 L194.068373,122.606545 L318.13768,122.606545 L318.13768,53.5730392 L124.63886,53.9815215 L124.63886,353.399037 L318.13768,353.399037 Z M423.309013,353.399037 L423.309013,53.164557 L353.8795,53.164557 L353.8795,353.399037 L423.309013,353.399037 Z M533.821077,353.399037 L533.821077,178.568619 L632.419202,353.399037 L707.600272,353.399037 L707.600272,53.5730392 L638.170759,53.5730392 L638.170759,228.81194 L539.98346,54.3900038 L464.391565,54.3900038 L464.391565,353.399037 L533.821077,353.399037 Z M245.010737,681.454758 C260.622107,681.182437 275.343355,677.982659 289.174481,671.855425 C303.005607,665.72819 315.056489,657.490464 325.327126,647.142246 C335.597764,636.794028 343.677333,624.675721 349.565832,610.787323 C355.454331,596.898925 358.261639,582.193563 357.987755,566.671236 L357.987755,566.671236 L357.987755,381.220278 L288.558243,381.220278 L288.558243,567.079718 C288.558243,573.343113 287.462708,579.198026 285.271638,584.644457 C283.080569,590.090887 279.930907,594.856514 275.822651,598.941337 C271.714396,603.026159 266.921432,606.294018 261.443758,608.744911 C255.966085,611.195805 250.214527,612.421252 244.189086,612.421252 C231.864321,612.421252 221.182857,608.200268 212.144696,599.758301 C203.106535,590.771691 198.587454,580.287312 198.587454,568.305165 L198.587454,568.305165 L198.587454,381.220278 L129.157941,381.220278 L129.157941,568.713647 C129.431825,584.235974 132.513016,598.805176 138.401515,612.421252 C144.290014,626.037328 152.711938,638.291797 163.667285,649.184658 C174.348748,659.532876 186.536572,667.49828 200.230756,673.080871 C213.92494,678.663463 228.440775,681.454758 243.778261,681.454758 L243.778261,681.454758 L245.010737,681.454758 Z M468.910645,681.454758 L468.910645,506.62434 L567.50877,681.454758 L642.68984,681.454758 L642.68984,381.628761 L573.260327,381.628761 L573.260327,556.867661 L475.073028,382.445725 L399.481133,382.445725 L399.481133,681.454758 L468.910645,681.454758 Z M740.877139,681.454758 C761.418415,680.365472 780.453331,675.804087 797.981886,667.770602 C815.510442,659.737117 830.779457,649.048497 843.788932,635.704742 C856.798406,622.360988 867.000574,606.906741 874.395433,589.342003 C881.790292,571.777265 885.487722,552.918999 885.487722,532.767206 C885.487722,512.343092 881.721821,493.144425 874.19002,475.171204 C866.658219,457.197984 856.387581,441.403335 843.378106,427.787259 C830.368631,414.171183 815.031145,403.142161 797.365648,394.700194 C779.700151,386.258227 760.870648,381.4926 740.877139,380.403314 L740.877139,380.403314 L740.877139,379.994832 L671.447626,379.994832 L671.447626,681.454758 L740.877139,681.454758 Z M740.877139,612.01277 L740.877139,449.43682 C751.558603,450.526106 761.418415,453.453563 770.456577,458.219189 C779.494738,462.984816 787.437365,469.11205 794.284457,476.600892 C801.131549,484.089734 806.47228,492.667862 810.306652,502.335276 C814.141023,512.00269 816.058209,522.146667 816.058209,532.767206 C816.058209,543.115424 814.141023,552.918999 810.306652,562.177931 C806.47228,571.436863 801.20002,579.538428 794.489869,586.482627 C787.779719,593.426826 779.837093,599.145578 770.661989,603.638883 C761.486886,608.132188 751.558603,610.923484 740.877139,612.01277 L740.877139,612.01277 Z M355.933628,1009.51048 L355.933628,940.476974 L231.453495,940.476974 L357.57693,707.642071 L131.622894,707.233589 L131.622894,776.675577 L241.313308,776.675577 L115.189873,1009.51048 L355.933628,1009.51048 Z M535.053554,1009.51048 L569.562898,859.188999 L609.412973,1009.51048 L678.020835,1009.51048 L767.169972,707.642071 L694.453855,707.642071 L645.565619,873.894361 L601.196463,707.642071 L532.999426,707.642071 L494.792653,874.711326 L438.920383,707.642071 L365.79344,707.642071 L466.034867,1009.51048 L535.053554,1009.51048 Z M828.7938,1009.51048 L841.118566,973.155556 L936.019261,973.155556 L947.933201,1009.51048 L1021.06014,1009.51048 L923.694495,709.684482 L857.962412,709.684482 L755.256032,1009.51048 L828.7938,1009.51048 Z M913.834683,904.12205 L864.946446,904.12205 L890.006803,831.412203 L913.834683,904.12205 Z M1111.03093,1009.51048 L1111.03093,834.680062 L1209.62906,1009.51048 L1284.81013,1009.51048 L1284.81013,709.684482 L1215.38061,709.684482 L1215.38061,884.923383 L1117.19331,710.501447 L1041.60142,710.501447 L1041.60142,1009.51048 L1111.03093,1009.51048 Z M355.933628,1337.5662 L355.933628,1268.5327 L231.453495,1268.5327 L357.57693,1035.69779 L131.622894,1035.28931 L131.622894,1104.7313 L241.313308,1104.7313 L115.189873,1337.5662 L355.933628,1337.5662 Z M468.088994,1337.5662 L468.088994,1037.33172 L398.659482,1037.33172 L398.659482,1337.5662 L468.088994,1337.5662 Z M636.938283,1337.97468 C644.88091,1337.97468 652.892007,1337.36196 660.971576,1336.13651 C669.051144,1334.91107 676.9253,1332.93674 684.594043,1330.21352 L684.594043,1330.21352 L684.594043,1337.5662 L754.434381,1337.5662 L754.434381,1169.67998 L624.202692,1169.67998 L624.202692,1238.71349 L684.594043,1238.71349 L684.594043,1253.82733 C676.651416,1259.54608 668.02408,1263.63091 658.712035,1266.0818 C649.39999,1268.5327 640.019474,1269.41774 630.570487,1268.73694 C621.1215,1268.05613 611.946397,1265.7414 603.045177,1261.79274 C594.143958,1257.84408 586.13286,1252.32956 579.011885,1245.2492 C571.069258,1237.35188 565.043817,1228.36527 560.935562,1218.28937 C556.827307,1208.21348 554.773179,1198.00142 554.773179,1187.6532 C554.773179,1177.30498 556.827307,1167.09293 560.935562,1157.01703 C565.043817,1146.94113 571.069258,1137.95452 579.011885,1130.0572 C586.954511,1122.15988 595.992673,1116.23688 606.126369,1112.28822 C616.260065,1108.33956 626.530703,1106.36523 636.938283,1106.36523 C647.345863,1106.36523 657.616501,1108.33956 667.750197,1112.28822 C677.883893,1116.23688 686.922054,1122.15988 694.864681,1130.0572 L694.864681,1130.0572 L744.163743,1081.03933 C729.374025,1066.33396 712.66712,1055.30494 694.04303,1047.95226 C675.41894,1040.59958 656.384024,1036.92324 636.938283,1036.92324 C617.492542,1036.92324 598.457626,1040.59958 579.833536,1047.95226 C561.209445,1055.30494 544.502541,1066.33396 529.712822,1081.03933 C514.923104,1095.74469 503.899286,1112.3563 496.641368,1130.87416 C489.38345,1149.39203 485.754492,1168.31837 485.754492,1187.6532 C485.754492,1206.98803 489.38345,1225.8463 496.641368,1244.228 C503.899286,1262.6097 514.923104,1279.15323 529.712822,1293.8586 C544.502541,1308.56396 561.209445,1319.59298 579.833536,1326.94566 C598.457626,1334.29834 617.492542,1337.97468 636.938283,1337.97468 Z" id="path-2"></path>
    </defs>
    <g id="Page-1" stroke="none" stroke-width="1" fill="none" fill-rule="evenodd">
        <g id="einundzwanzig-square" fill-rule="nonzero">
            <rect id="Background" stroke-opacity="0.49019608" stroke="#000000" stroke-width="0.1" fill="#00B4CF" stroke-linecap="square" x="0" y="0" width="1400" height="1400"></rect>
            <g id="Bitcoin" transform="translate(779.886076, 1170.481013)">
                <path d="M165.818329,104.54021 C154.575409,149.635522 108.901379,177.079925 63.800805,165.834375 C18.7186452,154.591456 -8.72575752,108.914794 2.52242286,63.8221123 C13.7600811,18.7215388 59.4341119,-8.72549446 104.521533,2.51742484 C149.619476,13.7603441 177.061248,59.4422666 165.818329,104.54021 Z" id="coin-0" fill="url(#linearGradient-1)"></path>
                <path d="M121.270168,72.1845926 C122.945821,60.9837619 114.417617,54.9624604 102.756442,50.945629 L106.539155,35.7726859 L97.3033366,33.4709652 L93.6205835,48.2440665 C91.1925969,47.6390427 88.6988469,47.068216 86.2208801,46.5026503 L89.9299387,31.6322191 L80.6993809,29.3304984 L76.9140368,44.4981804 C74.9043058,44.0404668 72.9314023,43.5880142 71.0163706,43.1118869 L71.0268928,43.0645372 L58.2898279,39.8842168 L55.8329055,49.7487342 C55.8329055,49.7487342 62.6854569,51.3191653 62.5407773,51.4164953 C66.2814023,52.3503362 66.9574506,54.8256725 66.8443374,56.7880538 C56.4800178,98.3531843 66.8443374,56.7880538 56.4800178,98.3531843 C56.0223042,99.4895767 54.8622369,101.194165 52.2474822,100.547053 C52.339551,100.68121 45.5343493,98.8714003 45.5343493,98.8714003 L40.9493216,109.443532 L52.9682496,112.439715 C55.2042069,113.00002 57.395445,113.58663 59.5524862,114.139043 L55.7303145,129.485601 L64.9556112,131.787322 L68.7409553,116.603857 C71.2610107,117.287797 73.707411,117.919126 76.1012006,118.513627 L72.3290091,133.626068 L81.5648279,135.927789 L85.3869996,120.610166 C101.13603,123.590566 112.978712,122.38841 117.963582,108.144047 C121.980413,96.6749011 117.763661,90.0590981 109.477466,85.7450158 C115.51192,84.3534612 120.05749,80.3839794 121.270168,72.1845926 L121.270168,72.1845926 Z M100.167992,101.775514 C97.3138588,113.24466 78.0030795,107.044482 71.7423991,105.489834 L76.8140763,85.1584059 C83.0747567,86.7209454 103.151023,89.8144581 100.167992,101.775514 Z M103.024757,72.0188687 C100.420524,82.4515823 84.3479371,77.1510483 79.1342108,75.8515625 L83.7323912,57.4114913 C88.9461175,58.7109771 105.736841,61.1363331 103.024757,72.0188687 L103.024757,72.0188687 Z" id="symbol-3" fill="#FFFFFF"></path>
            </g>
            <g id="EINUNDZWANZIG">
                <use fill="#000000" xlink:href="#path-2"></use>
                <use fill="#FFFFFF" xlink:href="#path-2"></use>
            </g>
        </g>
        <text id="03" font-family="DroidSans, Droid Sans" font-size="180" font-weight="normal" fill="#FFFFFF">
            <tspan x="1097.71875" y="183">03</tspan>
        </text>
    </g>
</svg>
